# xmcd CD database file
#
# Track frame offsets:
#	150
#	19832
#	45979
#	64778
#	81969
#	104481
#	123304
#	151501
#	177516
#	210296
#	240179
#	269352
#
# Disc length: 3745 seconds
#
# Revision: 0
# Processed by: cddbd v1.5.2PL0 Copyright (c) Steve Scherf et al.
# Submitted via: CDex 1.51
#
DISCID=8f0e9f0c
DTITLE=Patrick Flynn - Good News
DYEAR=2007
DGENRE=Blues
TTITLE0=Good News Blues
TTITLE1=Don't Take Your Love Away
TTITLE2=Money Don't Matter
TTITLE3=Maybe You're the Dream
TTITLE4=Take the Spirit and Run
TTITLE5=Uncle Sam (Mr Big Time)
TTITLE6=Nothin But the Rain
TTITLE7=What I Say to You
TTITLE8=The Realist
TTITLE9=I Wanna Go There
TTITLE10=Gone Too Soon
TTITLE11=Good News Blues (instrumental)
EXTD=YEAR: 2007
EXTT0=
EXTT1=
EXTT2=
EXTT3=
EXTT4=
EXTT5=
EXTT6=
EXTT7=
EXTT8=
EXTT9=
EXTT10=
EXTT11=
PLAYORDER=
